HIERARCHY
ROOT Hips
{
     OFFSET 11.07470 99.83240 -1.34628
     CHANNELS 6 Xposition Yposition Zposition Zrotation Xrotation Yrotation
     JOINT Spine
     {
          OFFSET 0.00000 11.89050 0.00000
          CHANNELS 3 Zrotation Xrotation Yrotation
          JOINT Spine1
          {
               OFFSET -0.00000 25.65740 0.12766
               CHANNELS 3 Zrotation Xrotation Yrotation
               JOINT HEad
               {
                    OFFSET -0.00000 8.73416 0.01134
                    CHANNELS 3 Zrotation Xrotation Yrotation
                    End Site
                    {
                         OFFSET -0.29000 12.77420 2.51395
                    }
               }
               JOINT LeftShoulder1
               {
                    OFFSET 8.99000 -0.36225 -0.22000
                    CHANNELS 3 Zrotation Xrotation Yrotation
                    JOINT LeftArm
                    {
                         OFFSET 10.28270 -0.00338 0.32212
                         CHANNELS 3 Zrotation Xrotation Yrotation
                         JOINT LeftForeArm
                         {
                              OFFSET 32.76690 0.09914 -1.42434
                              CHANNELS 3 Zrotation Xrotation Yrotation
                              JOINT LeftHand
                              {
                                   OFFSET 27.56430 0.08536 1.02216
                                   CHANNELS 3 Zrotation Xrotation Yrotation
                                   End Site
                                   {
                                        OFFSET 16.74430 -0.60000 1.50291
                                   }
                              }
                         }
                    }
               }
               JOINT RightShoulder
               {
                    OFFSET -8.99000 -0.36225 -0.22000
                    CHANNELS 3 Zrotation Xrotation Yrotation
                    JOINT RightArm
                    {
                         OFFSET -10.28270 -0.00338 0.32212
                         CHANNELS 3 Zrotation Xrotation Yrotation
                         JOINT RightForeArm
                         {
                              OFFSET -32.89710 0.09914 -1.42434
                              CHANNELS 3 Zrotation Xrotation Yrotation
                              JOINT RightHand
                              {
                                   OFFSET -27.49210 0.08536 1.02216
                                   CHANNELS 3 Zrotation Xrotation Yrotation
                                   End Site
                                   {
                                        OFFSET -16.63120 -0.60000 1.50291
                                   }
                              }
                         }
                    }
               }
          }
     }
     JOINT LeftUpLeg
     {
          OFFSET 8.94580 -8.66707 0.10165
          CHANNELS 3 Zrotation Xrotation Yrotation
          JOINT LeftLeg
          {
               OFFSET 0.00000 -44.42270 1.37270
               CHANNELS 3 Zrotation Xrotation Yrotation
               JOINT LeftFoot
               {
                    OFFSET -0.25355 -42.09240 -1.46059
                    CHANNELS 3 Zrotation Xrotation Yrotation
                    JOINT LeftToes
                    {
                         OFFSET -0.04000 -4.41509 8.49910
                         CHANNELS 3 Zrotation Xrotation Yrotation
                         End Site
                         {
                              OFFSET 0.08000 -0.04745 9.77979
                         }
                    }
               }
          }
     }
     JOINT RightUpLeg
     {
          OFFSET -8.94580 -8.66707 0.10165
          CHANNELS 3 Zrotation Xrotation Yrotation
          JOINT RightLeg
          {
               OFFSET 0.00000 -44.42270 1.37270
               CHANNELS 3 Zrotation Xrotation Yrotation
               JOINT RightFoot
               {
                    OFFSET 0.25355 -42.09240 -1.46059
                    CHANNELS 3 Zrotation Xrotation Yrotation
                    JOINT RightToes
                    {
                         OFFSET 0.04000 -4.41509 8.49910
                         CHANNELS 3 Zrotation Xrotation Yrotation
                         End Site
                         {
                              OFFSET -0.08000 -0.13745 9.77979
                         }
                    }
               }
          }
     }
}
MOTION
Frames: 19
Frame Time: 0.01667
11.07470 99.83240 -1.34628 -0.01166 0.38830 -33.64880 -2.66840 5.11536 2.48619 -3.02894 9.93385 4.97758 8.41331 8.18978 9.18896 -0.00000 -0.00000 0.00000 -85.11940 -30.24210 -92.46070 -17.16770 30.02270 -78.67870 5.55594 9.67997 -0.87718 22.11620 2.05421 6.14072 78.94740 -37.78150 77.41450 35.44370 49.28610 85.09520 -5.55712 9.68432 0.87760 3.75254 -15.51120 3.95326 2.21511 22.24730 -13.22810 -2.60826 -11.18530 -0.02903 -0.85689 3.67877 2.96039 -10.71780 -2.72230 -1.34424 4.51706 43.81870 -4.09302 9.44424 -15.94120 0.47075 4.91997 6.51360 0.24365 
11.19500 99.74310 -1.62107 0.02381 0.40236 -34.42510 -2.53715 4.94423 2.65074 -2.89511 9.59497 5.31466 7.27128 8.59088 10.38790 -0.00000 -0.00000 0.00000 -86.29650 -30.77240 -94.09780 -17.14680 29.71440 -78.35350 5.55594 9.67997 -0.87718 21.94690 2.03929 6.13030 79.79020 -37.67640 78.73190 35.99590 49.44120 84.85520 -5.55712 9.68432 0.87760 3.90085 -15.81960 3.89947 2.20831 22.63620 -12.26450 -3.58185 -11.19700 -0.05973 -0.64751 3.39671 2.19316 -11.72250 -1.22266 -0.38770 5.89695 43.66590 -6.93950 9.55194 -15.29410 0.42729 4.78794 6.26992 0.16391 
11.31800 99.66270 -1.94947 -0.01247 0.42580 -35.32580 -2.34653 4.79551 2.85166 -2.68959 9.31073 5.73090 6.06916 8.83847 11.63600 -0.00000 -0.00000 0.00000 -87.32610 -31.39560 -95.58040 -17.04670 29.25220 -77.93510 5.55594 9.67997 -0.87718 21.81180 2.03145 6.13884 80.48220 -37.36410 79.98160 36.42600 49.56670 84.56050 -5.55712 9.68432 0.87760 4.18521 -16.08850 4.04893 2.22512 22.99870 -11.38310 -4.75925 -11.13700 -0.09447 -0.43891 3.00773 1.43078 -12.62660 0.17068 0.60932 7.01042 43.17480 -9.64990 9.74375 -14.53670 0.37902 4.62401 6.09309 0.24221 
11.44660 99.58860 -2.33809 -0.11743 0.47167 -36.33730 -2.10714 4.67350 3.08110 -2.40655 9.08696 6.20271 4.89321 8.93648 12.95770 -0.00000 -0.00000 0.00000 -88.30550 -32.12100 -96.91380 -16.91720 28.74770 -77.49430 5.55594 9.67997 -0.87718 21.61240 2.01831 6.14502 81.08510 -36.79920 81.13210 36.69820 49.66780 84.25500 -5.55712 9.68432 0.87760 4.61652 -16.32810 4.42111 2.25708 23.32580 -10.59800 -6.02124 -10.98320 -0.12609 -0.22765 2.47879 0.65575 -13.38520 1.42493 1.44505 7.59599 42.38610 -11.76570 10.00430 -13.59360 0.31662 4.39885 5.94035 0.47918 
11.58490 99.51720 -2.78637 -0.26482 0.55070 -37.40490 -1.83532 4.57725 3.31893 -2.06737 8.91925 6.68657 3.81486 8.90512 14.35880 -0.00000 -0.00000 0.00000 -89.31030 -32.94130 -98.12560 -16.80850 28.30980 -77.10850 5.55594 9.67997 -0.87718 21.24570 1.98770 6.12891 81.65960 -35.95380 82.14800 36.74790 49.72250 84.02560 -5.55712 9.68432 0.87760 5.16010 -16.56340 4.89508 2.27047 23.61080 -9.83144 -7.19881 -10.73090 -0.14624 -0.02063 1.82659 -0.11674 -13.99500 2.52642 1.96189 7.57721 41.32070 -12.96430 10.25610 -12.46490 0.23387 4.19832 5.85218 0.76046 
11.73290 99.44140 -3.29156 -0.41032 0.66367 -38.46670 -1.55816 4.50486 3.54540 -1.72397 8.80146 7.14517 2.85846 8.76859 15.79860 -0.00000 -0.00000 0.00000 -90.37340 -33.82740 -99.27210 -16.75510 28.01890 -76.83810 5.55594 9.67997 -0.87718 20.69540 1.93780 6.08616 82.23180 -34.85860 83.02730 36.55290 49.71370 83.94270 -5.55712 9.68432 0.87760 5.74491 -16.83280 5.31962 2.26306 23.87310 -9.03265 -8.22437 -10.48560 -0.15780 0.15265 1.30953 -0.79282 -14.51200 3.47452 2.19736 7.17856 39.94990 -13.29640 10.44460 -11.10780 0.12456 3.98628 5.74942 1.04641 
11.88320 99.35410 -3.85234 -0.51064 0.79532 -39.48700 -1.30320 4.45342 3.75203 -1.43302 8.72591 7.56608 2.00523 8.55876 17.20760 -0.00000 -0.00000 0.00000 -91.50860 -34.74270 -100.41200 -16.77900 27.92950 -76.71680 5.55594 9.67997 -0.87718 20.04730 1.87843 6.03015 82.77040 -33.62010 83.78990 36.18160 49.65410 83.99860 -5.55712 9.68432 0.87760 6.30857 -17.15770 5.63107 2.25192 24.12910 -8.21833 -9.12798 -10.35630 -0.17081 0.27466 1.16398 -1.29869 -15.01700 4.27493 2.34207 6.75599 38.23710 -13.06850 10.66390 -9.51414 -0.00911 3.70051 5.53119 1.32065 
12.02600 99.25260 -4.46799 -0.54048 0.91839 -40.44640 -1.08604 4.41813 3.93846 -1.22557 8.68145 7.95015 1.22704 8.30550 18.52850 -0.00000 -0.00000 0.00000 -92.72590 -35.65280 -101.57600 -16.89330 28.06860 -76.74380 5.55594 9.67997 -0.87718 19.42040 1.82294 5.98149 83.18710 -32.37050 84.43690 35.71060 49.55600 84.15190 -5.55712 9.68432 0.87760 6.83110 -17.52480 5.84002 2.20980 24.36050 -7.40807 -9.92636 -10.29670 -0.18508 0.36181 1.24602 -1.67339 -15.54270 4.95046 2.52962 6.48228 36.17850 -12.54940 11.06740 -7.67822 -0.17006 3.26567 5.04881 1.52518 
12.15350 99.13290 -5.13906 -0.50025 1.00648 -41.32530 -0.91801 4.39691 4.10816 -1.09804 8.65991 8.29642 0.50479 8.01780 19.72560 -0.00000 -0.00000 0.00000 -94.01080 -36.52500 -102.75600 -17.09270 28.41380 -76.88730 5.55594 9.67997 -0.87718 18.87810 1.77777 5.95018 83.42670 -31.20400 84.95430 35.18150 49.42080 84.36780 -5.55712 9.68432 0.87760 7.32212 -17.91470 5.97560 2.09601 24.55450 -6.61874 -10.61570 -10.17120 -0.19021 0.43939 1.17732 -1.99912 -16.03610 5.54492 2.74063 6.26043 33.82630 -11.86420 11.75780 -5.54718 -0.37663 2.48240 3.94701 1.55064 
12.25900 98.98600 -5.86985 -0.40813 1.04438 -42.10710 -0.81586 4.39463 4.26844 -1.02852 8.66471 8.60473 -0.15922 7.67949 20.77680 -0.00000 -0.00000 0.00000 -95.32560 -37.33040 -103.92700 -17.35420 28.90900 -77.10690 5.55594 9.67997 -0.87718 18.39250 1.73793 5.92350 83.57430 -30.16500 85.35100 34.68620 49.28590 84.57770 -5.55712 9.68432 0.87760 7.79021 -18.32670 6.08346 1.93205 24.73070 -5.89791 -11.21140 -9.85077 -0.17361 0.52552 0.58384 -2.34644 -16.40710 6.09620 2.88700 5.92501 31.33160 -11.10490 12.79860 -3.21234 -0.64305 1.12702 1.84026 1.24410 
12.33290 98.79970 -6.66746 -0.27510 1.02798 -42.77640 -0.79900 4.41904 4.42563 -0.99917 8.70669 8.87571 -0.74107 7.26562 21.67330 -0.00000 -0.00000 0.00000 -96.63750 -38.04830 -105.07500 -17.65310 29.50160 -77.37300 5.55594 9.67997 -0.87718 17.88280 1.69171 5.87222 83.79780 -29.26130 85.66600 34.34390 49.21240 84.70220 -5.55712 9.68432 0.87760 8.22644 -18.78120 6.21161 1.78274 24.91700 -5.28788 -11.71730 -9.21351 -0.12115 0.63287 -0.83999 -2.78930 -16.60480 6.59712 2.89479 5.43800 28.97620 -10.42510 14.12340 -1.10210 -0.94231 -0.83896 -1.26845 0.54197 
12.36620 98.57100 -7.53130 -0.09950 0.95910 -43.30970 -0.86553 4.46787 4.57449 -1.00710 8.78359 9.10333 -1.23248 6.79617 22.41860 -0.00000 -0.00000 0.00000 -97.90090 -38.66960 -106.17200 -17.96600 30.14520 -77.66630 5.55594 9.67997 -0.87718 17.31970 1.63451 5.78141 84.15830 -28.49310 85.93800 34.17320 49.21050 84.73570 -5.55712 9.68432 0.87760 8.61302 -19.29200 6.36127 1.67520 25.11240 -4.77316 -12.07120 -8.19610 -0.02353 0.75485 -3.14019 -3.35780 -16.64010 7.01240 2.72335 4.89785 27.07100 -9.96630 15.41900 0.14044 -1.17704 -3.09253 -4.73757 -0.41263 
12.35600 98.30950 -8.45000 0.12103 0.84417 -43.68250 -0.99165 4.52610 4.69881 -1.05946 8.87161 9.27223 -1.66993 6.36007 23.02440 -0.00000 -0.00000 0.00000 -99.04110 -39.19900 -107.15800 -18.27310 30.79340 -77.96610 5.55594 9.67997 -0.87718 16.78130 1.57621 5.67099 84.55480 -27.87740 86.19270 34.09100 49.23500 84.73850 -5.55712 9.68432 0.87760 8.93460 -19.85610 6.49321 1.59573 25.29800 -4.31254 -12.17620 -6.87785 0.10967 0.86579 -5.94673 -4.00547 -16.56760 7.32666 2.40063 4.46711 25.76120 -9.80965 16.28080 0.10879 -1.23251 -5.08376 -7.68330 -1.34997 
12.30820 98.02290 -9.41449 0.37265 0.70148 -43.87320 -1.12290 4.57521 4.77175 -1.15630 8.94536 9.37016 -2.09845 6.04008 23.50600 -0.00000 -0.00000 0.00000 -99.99540 -39.64510 -107.96800 -18.56390 31.41270 -78.25020 5.55594 9.67997 -0.87718 16.37690 1.53008 5.57170 84.85800 -27.42880 86.45920 34.01660 49.24140 84.76130 -5.55712 9.68432 0.87760 9.19324 -20.48560 6.59019 1.55754 25.49520 -3.92766 -12.00300 -5.46053 0.24961 0.94870 -8.68835 -4.66845 -16.44020 7.55871 2.03465 4.30919 24.95650 -10.06310 16.46970 -1.00793 -1.09204 -6.53991 -9.74795 -2.05566 
12.22820 97.73210 -10.39960 0.63547 0.54053 -43.90080 -1.22480 4.61100 4.79607 -1.29031 9.00171 9.40749 -2.51745 5.84946 23.88680 -0.00000 -0.00000 0.00000 -100.72400 -40.01200 -108.54700 -18.82800 31.97510 -78.50360 5.55594 9.67997 -0.87718 16.15220 1.50082 5.49538 85.01870 -27.13880 86.76380 33.92140 49.21230 84.81760 -5.55712 9.68432 0.87760 9.37894 -21.13300 6.67029 1.60637 25.66420 -3.66309 -11.63550 -4.09544 0.37358 1.00673 -11.01020 -5.32587 -16.31360 7.79097 1.74411 4.51377 24.35710 -10.80190 15.93740 -2.61171 -0.84717 -7.56624 -11.11530 -2.44022 
12.12170 97.46080 -11.37680 0.87565 0.35510 -43.81330 -1.26321 4.63741 4.79199 -1.44704 9.05470 9.41588 -2.90204 5.76499 24.19920 -0.00000 -0.00000 0.00000 -100.85800 -40.33690 -108.62900 -18.97110 32.18110 -78.81830 5.55594 9.67997 -0.87718 16.08590 1.48633 5.44117 85.07730 -26.99340 87.11060 33.83090 49.16110 84.88310 -5.55712 9.68432 0.87760 9.49617 -21.69750 6.75646 1.76300 25.71640 -3.53805 -11.28620 -2.78464 0.48415 1.04935 -12.97150 -6.00973 -16.21500 8.09758 1.55260 5.03806 23.73660 -11.90100 14.79470 -4.29487 -0.58840 -8.21686 -11.90540 -2.50547 
11.99660 97.22170 -12.33410 1.05236 0.13810 -43.66340 -1.21209 4.66049 4.77772 -1.60413 9.12140 9.42694 -3.25828 5.76171 24.46780 -0.00000 -0.00000 0.00000 -100.68900 -40.61380 -108.39400 -19.03970 32.23170 -79.11960 5.55594 9.67997 -0.87718 16.14050 1.48441 5.41182 85.11280 -26.98850 87.49570 33.81000 49.12720 84.89970 -5.55712 9.68432 0.87760 9.58615 -22.08790 6.84753 2.00005 25.58110 -3.55758 -11.32740 -1.49563 0.60570 1.07794 -14.73810 -6.73608 -16.11860 8.48158 1.36294 5.69782 23.08520 -13.01670 13.34250 -6.01144 -0.35489 -8.40804 -12.07450 -2.33821 
11.86240 97.02040 -13.27320 1.14520 -0.10307 -43.49690 -1.08993 4.68789 4.77072 -1.73291 9.21185 9.45931 -3.60891 5.80281 24.70520 -0.00000 -0.00000 0.00000 -100.43500 -40.84920 -107.99200 -19.07730 32.24870 -79.36120 5.55594 9.67997 -0.87718 16.29220 1.49439 5.41235 85.16970 -27.11560 87.91500 33.90980 49.14510 84.81970 -5.55712 9.68432 0.87760 9.69669 -22.27640 6.91689 2.27448 25.25640 -3.78364 -12.10360 -0.42205 0.75483 1.09053 -16.02910 -7.34164 -15.96830 8.88670 1.04275 6.25450 22.50820 -13.78390 11.95530 -7.77199 -0.16063 -8.20453 -11.74200 -2.06378 
11.72820 96.85510 -14.19380 1.15876 -0.34294 -43.33680 -0.92395 4.72139 4.78221 -1.80409 9.32124 9.51969 -3.95689 5.85166 24.91690 -0.00000 -0.00000 0.00000 -100.19700 -41.05280 -107.49800 -19.11200 32.26350 -79.52940 5.55594 9.67997 -0.87718 16.51310 1.51350 5.43703 85.24810 -27.34290 88.33960 34.13810 49.22520 84.64540 -5.55712 9.68432 0.87760 9.84902 -22.32080 6.93485 2.56981 24.83790 -4.35467 -13.59890 0.00922 0.89904 1.09750 -16.22260 -7.50602 -15.72380 9.23882 0.55396 6.57174 22.10630 -14.06550 10.85890 -9.44603 -0.01200 -7.89190 -11.26110 -1.74817 
